<svg xmlns="http://www.w3.org/2000/svg">
  <def>
    <symbol id="icon_add" viewBox="0 0 24 24">
      <path d="M0 0h24v24H0z" fill="none"/>
      <path d="M12 2C6.48 2 2 6.48 2 12s4.48 10 10 10 10-4.48 10-10S17.52 2 12 2zm5 11h-4v4h-2v-4H7v-2h4V7h2v4h4v2z"/>
    </symbol>
    <symbol id="icon_arrow" viewBox="0 0 24 24">
      <path d="M0 0h24v24H0z" fill="none"/>
      <path d="M20 11H7.83l5.59-5.59L12 4l-8 8 8 8 1.41-1.41L7.83 13H20v-2z"/>
    </symbol>
    <symbol id="icon_badgr" viewBox="0 0 24 24">
      <path d="M20.5 9.057a20.998 20.998 0 0 0-4.255-1.328L14.6 6.561a1.667 1.667 0 0 0-1.903 0l-1.192.848a16.537 16.537 0 0 0-6.177 1.672c-.501.248-1.14.476-1.828.684V6.428L12 2.597l8.5 3.832v2.628zM8 10.911a.911.911 0 1 1 1.822 0 .911.911 0 0 1-1.822 0zm4 10.492l-8.5-3.831v-3.451c4.97.518 9.564 2.662 11.749 5.503l.18.234-3.43 1.545zm9.322-16.798L12 .403 2.68 4.604A2.005 2.005 0 0 0 1.5 6.429v3.874l-.494.118c-.402.095-.718.34-.865.671a.963.963 0 0 0 .038.862c.16.294.416.569.64.805l.39.404c.087.09.189.167.29.247v4.162c0 .785.464 1.501 1.18 1.823l9.32 4.202 9.323-4.202a2.003 2.003 0 0 0 1.178-1.823V6.429c0-.786-.462-1.501-1.178-1.824z"/>
    </symbol>
    <symbol id="icon_bell" viewBox="0 0 24 24">
        <path d="M21.202 16.893A3 3 0 0 1 19 14v-4a7.001 7.001 0 0 0-5.5-6.835V1.5a1.5 1.5 0 0 0-3 0v1.665A7 7 0 0 0 5 10v4a3.001 3.001 0 0 1-2.202 2.893c-.457.126-.798.504-.798.978V18a2 2 0 0 0 2 2h16a2 2 0 0 0 2-2v-.129c0-.474-.341-.852-.798-.978M12 24a3 3 0 0 0 3-3H9a3 3 0 0 0 3 3"/>
    </symbol>
    <symbol id="icon_checkmark_circle" viewBox="0 0 24 24">
      <path d="M0 0h24v24H0z" fill="none"/>
      <path d="M12 2C6.48 2 2 6.48 2 12s4.48 10 10 10 10-4.48 10-10S17.52 2 12 2zm-2 15l-5-5 1.41-1.41L10 14.17l7.59-7.59L19 8l-9 9z"/>
    </symbol>
    <symbol id="icon_checkmark" viewBox="0 0 24 24">
      <path d="M0 0h24v24H0z" fill="none"/>
      <path d="M9 16.2L4.8 12l-1.4 1.4L9 19 21 7l-1.4-1.4L9 16.2z"/>
    </symbol>
    <symbol id="icon_close" viewBox="0 0 24 24">
      <path d="M0 0h24v24H0z" fill="none"/>
      <path d="M19 6.41L17.59 5 12 10.59 6.41 5 5 6.41 10.59 12 5 17.59 6.41 19 12 13.41 17.59 19 19 17.59 13.41 12z"/>
    </symbol>
    <symbol id="icon_complete" viewBox="0 0 24 24">
      <path d="M0 0h24v24H0z" fill="none"/>
      <path d="M 18.06 4 9.71 12.66 5.46 9.2 2.05 13.4 8.24 18.43 10.17 20 11.89 18.21 21.95 7.76 18.06 4"/>
    </symbol>
    <symbol id="icon_dot" viewBox="0 0 24 24">
      <path d="M0 0h24v24H0z" fill="none"/>
      <path d="M12 7c-2.76 0-5 2.24-5 5s2.24 5 5 5 5-2.24 5-5-2.24-5-5-5zm0-5C6.48"/>
    </symbol>
    <symbol id="icon_dropdown" viewBox="0 0 24 24">
      <path d="M0 0h24v24H0z" fill="none"/>
      <path d="M7 10l5 5 5-5z"/>
    </symbol>
    <symbol id="icon_edit" viewBox="0 0 24 24">
      <path d="M0 0h24v24H0z" fill="none"/>
      <path d="M3 17.25V21h3.75L17.81 9.94l-3.75-3.75L3 17.25zM20.71 7.04c.39-.39.39-1.02 0-1.41l-2.34-2.34c-.39-.39-1.02-.39-1.41 0l-1.83 1.83 3.75 3.75 1.83-1.83z"/>
    </symbol>
    <symbol id="icon_error" viewBox="0 0 24 24">
      <path d="M0 0h24v24H0z" fill="none"/>
      <path d="M12 2C6.48 2 2 6.48 2 12s4.48 10 10 10 10-4.48 10-10S17.52 2 12 2zm1 15h-2v-2h2v2zm0-4h-2V7h2v6z"/>
    </symbol>
    <symbol id="icon_exit_to_app" viewBox="0 0 24 24">
      <path d="M0 0h24v24H0z" fill="none"/>
      <path d="M10.09 15.59L11.5 17l5-5-5-5-1.41 1.41L12.67 11H3v2h9.67l-2.58 2.59zM19 3H5c-1.11 0-2 .9-2 2v4h2V5h14v14H5v-4H3v4c0 1.1.89 2 2 2h14c1.1 0 2-.9 2-2V5c0-1.1-.9-2-2-2z"/>
    </symbol>
    <symbol id="icon_expand" viewBox="0 0 24 24">
      <path d="M0 0h24v24H0z" fill="none"/>
      <path d="M19 13h-6v6h-2v-6H5v-2h6V5h2v6h6v2z"/>
    </symbol>
    <symbol id="icon_collapse" viewBox="0 0 24 24">
      <path d="M0 0h24v24H0z" fill="none"/>
      <path d="M19 13H5v-2h14v2z"/>
    </symbol>
    <symbol id="icon_group" viewBox="0 0 24 24">
      <path d="M0 0h24v24H0z" fill="none"/>
      <path d="M16 11c1.66 0 2.99-1.34 2.99-3S17.66 5 16 5c-1.66 0-3 1.34-3 3s1.34 3 3 3zm-8 0c1.66 0 2.99-1.34 2.99-3S9.66 5 8 5C6.34 5 5 6.34 5 8s1.34 3 3 3zm0 2c-2.33 0-7 1.17-7 3.5V19h14v-2.5c0-2.33-4.67-3.5-7-3.5zm8 0c-.29 0-.62.02-.97.05 1.16.84 1.97 1.97 1.97 3.45V19h6v-2.5c0-2.33-4.67-3.5-7-3.5z"/>
    </symbol>
    <symbol id="icon_help" viewBox="0 0 24 24">
      <path d="M0 0h24v24H0z" fill="none"/>
      <rect x="10.8" y="17.31" width="2.66" height="2.66"/>
      <path d="M12.12 4A5.31 5.31 0 0 0 6.81 9.34H9.47a2.66 2.66 0 0 1 5.31 0c0 2.66-4 2.33-4 6.64h2.65c0-3 4-3.32 4-6.64A5.32 5.32 0 0 0 12.12 4Z"/>
    </symbol>
    <symbol id="icon_info" viewBox="0 0 24 24">
      <path d="M0 0h24v24H0z" fill="none"/>
      <path d="M11 17h2v-6h-2v6zm1-15C6.48 2 2 6.48 2 12s4.48 10 10 10 10-4.48 10-10S17.52 2 12 2zm0 18c-4.41 0-8-3.59-8-8s3.59-8 8-8 8 3.59 8 8-3.59 8-8 8zM11 9h2V7h-2v2z"/>
    </symbol>
    <symbol id="icon_more" viewBox="0 0 24 24">
      <path d="M0 0h24v24H0z" fill="none"/>
      <path d="M6 10c-1.1 0-2 .9-2 2s.9 2 2 2 2-.9 2-2-.9-2-2-2zm12 0c-1.1 0-2 .9-2 2s.9 2 2 2 2-.9 2-2-.9-2-2-2zm-6 0c-1.1 0-2 .9-2 2s.9 2 2 2 2-.9 2-2-.9-2-2-2z"/>
    </symbol>
    <symbol id="icon_move" viewBox="0 0 24 24">
      <path d="M0 0h24v24H0z" fill="none"/>
      <path d="M10 9h4V6h3l-5-5-5 5h3v3zm-1 1H6V7l-5 5 5 5v-3h3v-4zm14 2l-5-5v3h-3v4h3v3l5-5zm-9 3h-4v3H7l5 5 5-5h-3v-3z"/>
    </symbol>
    <symbol id="icon_organization" viewBox="0 0 24 24">
      <path d="M21 9h-2v11h4v-9a2 2 0 0 0-2-2zm-8.449-.5V6.056A2.99 2.99 0 0 1 14.949 8.5h-2.398zm0 3.445V9.5h2.398a2.991 2.991 0 0 1-2.398 2.445zm-1-3.445h-2.5a2.986 2.986 0 0 1 2.5-2.455V8.5zm0 3.455a2.986 2.986 0 0 1-2.5-2.455h2.5v2.455zM12 3a6 6 0 0 0-6 6v11h4v-4a1 1 0 0 1 1-1h2a1 1 0 0 1 1 1v4h4V9a6 6 0 0 0-6-6zM1 11v9h4V9H3a2 2 0 0 0-2 2z"/>
    </symbol>
    <symbol id="icon_pending" viewBox="0 0 24 24">
      <path d="M0 0h24v24H0z" fill="none"/>
      <path d="M11.99 2C6.47 2 2 6.48 2 12s4.47 10 9.99 10C17.52 22 22 17.52 22 12S17.52 2 11.99 2zM12 20c-4.42 0-8-3.58-8-8s3.58-8 8-8 8 3.58 8 8-3.58 8-8 8z"/>
      <path d="M12.5 7H11v6l5.25 3.15.75-1.23-4.5-2.67z"/>
    </symbol>
    <symbol id="icon_priority_high" viewBox="0 0 24 24">
      <path d="M0 0h24v24H0z" fill="none"/>
      <circle cx="12" cy="19" r="2"/>
      <path d="M10 3h4v12h-4z"/>
    </symbol>
    <symbol id="icon_refresh" viewBox="0 0 24 24">
      <path d="M0 0h24v24H0z" fill="none"/>
      <path d="M19 8l-4 4h3c0 3.31-2.69 6-6 6-1.01 0-1.97-.25-2.8-.7l-1.46 1.46C8.97 19.54 10.43 20 12 20c4.42 0 8-3.58 8-8h3l-4-4zM6 12c0-3.31 2.69-6 6-6 1.01 0 1.97.25 2.8.7l1.46-1.46C15.03 4.46 13.57 4 12 4c-4.42 0-8 3.58-8 8H1l4 4 4-4H6z"/>
    </symbol>
    <symbol id="icon_remove" viewBox="0 0 24 24">
      <path d="M0 0h24v24H0z" fill="none"/>
      <path d="M6 19c0 1.1.9 2 2 2h8c1.1 0 2-.9 2-2V7H6v12zM19 4h-3.5l-1-1h-5l-1 1H5v2h14V4z"/>
    </symbol>
    <symbol id="icon_search" viewBox="0 0 24 24">
      <path d="M0 0h24v24H0z" fill="none"/>
      <path d="M15.5 14h-.79l-.28-.27C15.41 12.59 16 11.11 16 9.5 16 5.91 13.09 3 9.5 3S3 5.91 3 9.5 5.91 16 9.5 16c1.61 0 3.09-.59 4.23-1.57l.27.28v.79l5 4.99L20.49 19l-4.99-5zm-6 0C7.01 14 5 11.99 5 9.5S7.01 5 9.5 5 14 7.01 14 9.5 11.99 14 9.5 14z"/>
    </symbol>
    <symbol id="icon_share" viewBox="0 0 24 24">
      <path d="M0 0h24v24H0z" fill="none"/>
      <path d="M18 16.08c-.76 0-1.44.3-1.96.77L8.91 12.7c.05-.23.09-.46.09-.7s-.04-.47-.09-.7l7.05-4.11c.54.5 1.25.81 2.04.81 1.66 0 3-1.34 3-3s-1.34-3-3-3-3 1.34-3 3c0 .24.04.47.09.7L8.04 9.81C7.5 9.31 6.79 9 6 9c-1.66 0-3 1.34-3 3s1.34 3 3 3c.79 0 1.5-.31 2.04-.81l7.12 4.16c-.05.21-.08.43-.08.65 0 1.61 1.31 2.92 2.92 2.92 1.61 0 2.92-1.31 2.92-2.92s-1.31-2.92-2.92-2.92z"/>
    </symbol>
    <symbol id="icon_sign_out" viewBox="0 0 24 24">
      <path d="M0 0h24v24H0z" fill="none"/>
      <path d="M13 3h-2v10h2V3zm4.83 2.17l-1.42 1.42C17.99 7.86 19 9.81 19 12c0 3.87-3.13 7-7 7s-7-3.13-7-7c0-2.19 1.01-4.14 2.58-5.42L6.17 5.17C4.23 6.82 3 9.26 3 12c0 4.97 4.03 9 9 9s9-4.03 9-9c0-2.74-1.23-5.18-3.17-6.83z"/>
    </symbol>
    <symbol id="icon_toggle" viewBox="0 0 24 24">
      <path d="M0-.25h24v24H0z" fill="none"/>
      <path d="M8.59 16.34l4.58-4.59-4.58-4.59L10 5.75l6 6-6 6z"/>
    </symbol>
    <symbol id="icon_settings" viewBox="0 0 24 24">
        <path d="M0 0h24v24H0z" fill="none"/>
        <path d="M19.43 12.98c.04-.32.07-.64.07-.98s-.03-.66-.07-.98l2.11-1.65c.19-.15.24-.42.12-.64l-2-3.46c-.12-.22-.39-.3-.61-.22l-2.49 1c-.52-.4-1.08-.73-1.69-.98l-.38-2.65C14.46 2.18 14.25 2 14 2h-4c-.25 0-.46.18-.49.42l-.38 2.65c-.61.25-1.17.59-1.69.98l-2.49-1c-.23-.09-.49 0-.61.22l-2 3.46c-.13.22-.07.49.12.64l2.11 1.65c-.04.32-.07.65-.07.98s.03.66.07.98l-2.11 1.65c-.19.15-.24.42-.12.64l2 3.46c.12.22.39.3.61.22l2.49-1c.52.4 1.08.73 1.69.98l.38 2.65c.03.24.24.42.49.42h4c.25 0 .46-.18.49-.42l.38-2.65c.61-.25 1.17-.59 1.69-.98l2.49 1c.23.09.49 0 .61-.22l2-3.46c.12-.22.07-.49-.12-.64l-2.11-1.65zM12 15.5c-1.93 0-3.5-1.57-3.5-3.5s1.57-3.5 3.5-3.5 3.5 1.57 3.5 3.5-1.57 3.5-3.5 3.5z"/>
    </symbol>
    <symbol id="icon_server" viewBox="0 0 24 24">
        <path d="M0 0h24v24H0z" fill="none"/>
        <path d="M20 13H4c-.55 0-1 .45-1 1v6c0 .55.45 1 1 1h16c.55 0 1-.45 1-1v-6c0-.55-.45-1-1-1zM7 19c-1.1 0-2-.9-2-2s.9-2 2-2 2 .9 2 2-.9 2-2 2zM20 3H4c-.55 0-1 .45-1 1v6c0 .55.45 1 1 1h16c.55 0 1-.45 1-1V4c0-.55-.45-1-1-1zM7 9c-1.1 0-2-.9-2-2s.9-2 2-2 2 .9 2 2-.9 2-2 2z"/>
    </symbol>
    <symbol id="icon_copy" viewBox="0 0 24 24">
        <path d="M0 0h24v24H0z" fill="none"/>
        <path d="M16 1H4c-1.1 0-2 .9-2 2v14h2V3h12V1zm3 4H8c-1.1 0-2 .9-2 2v14c0 1.1.9 2 2 2h11c1.1 0 2-.9 2-2V7c0-1.1-.9-2-2-2zm0 16H8V7h11v14z"/>
    </symbol>
    <symbol id="icon_revert" viewBox="0 0 24 24">
        <path d="M0 0h24v24H0z" fill="none"/>
        <path d="M14 12c0-1.1-.9-2-2-2s-2 .9-2 2 .9 2 2 2 2-.9 2-2zm-2-9c-4.97 0-9 4.03-9 9H0l4 4 4-4H5c0-3.87 3.13-7 7-7s7 3.13 7 7-3.13 7-7 7c-1.51 0-2.91-.49-4.06-1.3l-1.42 1.44C8.04 20.3 9.94 21 12 21c4.97 0 9-4.03 9-9s-4.03-9-9-9z"/>
    </symbol>
    <symbol id="icon_external_link" viewBox="0 0 24 24">
        <path d="M0 0h24v24H0z" fill="none"/>
        <path d="M19 19H5V5h7V3H5c-1.11 0-2 .9-2 2v14c0 1.1.89 2 2 2h14c1.1 0 2-.9 2-2v-7h-2v7zM14 3v2h3.59l-9.83 9.83 1.41 1.41L19 6.41V10h2V3h-7z"/>
    </symbol>
    <symbol id="icon_link" viewBox="0 0 24 24">
      <path d="M0 0h24v24H0z" fill="none"/>
      <path d="M13.71 16.39l-3.34 3.34a4.34 4.34 0 0 1-6.1 0h0l0 0h0a4.34 4.34 0 0 1 0-6.1L8 10a4.33 4.33 0 0 1 6.1 0h0v0h0a3.8 3.8 0 0 1 .54.66l-1 1a.9.9 0 0 1-1.06.14 1.07 1.07 0 0 0-.14-.16 2 2 0 0 0-2.81 0L5.92 15.28a2 2 0 1 0 2.8 2.8L10.81 16A5.46 5.46 0 0 0 13.71 16.39Zm6-12.15h0a4.34 4.34 0 0 0-6.1 0L10.29 7.61a5.46 5.46 0 0 1 2.9.4l2.09-2.09a2 2 0 1 1 2.8 2.8L14.4 12.4a2 2 0 0 1-2.81 0 1.07 1.07 0 0 1-.14-.16.9.9 0 0 0-1.06.14l-1 1a3.8 3.8 0 0 0 .54.66h0v0h0a4.33 4.33 0 0 0 6.1 0l3.68-3.68a4.34 4.34 0 0 0 0-6.1h0v0Z"/>
    </symbol>
    <symbol id="icon_step_arrow" viewBox="0 0 24 24">
      <path d="M0 0H24V24H0Z" fill="none"/>
      <path d="M3 7v6H18.17l-3.58 3.59L16 18l6-6L16 6 14.59 7.41 18.17 11H5V7Z"/>
    </symbol>
    <symbol id="icon_export" viewBox="0 0 24 24">
      <path d="M24 24H0V0H24Z" fill="none"/>
      <path d="M12 16l4-4H13V3H11v9H8ZM21 3H15V5h6V19H3V5H9V3H3A2 2 0 0 0 1 5V19a2 2 0 0 0 2 2H21a2 2 0 0 0 2-2V5A2 2 0 0 0 21 3Z"/>
    </symbol>
    <symbol id="icon_import" viewBox="0 0 24 24">
      <path d="M0 0H24V24H0Z" fill="none"/>
      <path d="M12 8 8 12h3v9h2V12h3ZM3 21H9V19H3V5H21V19H15v2h6a2 2 0 0 0 2-2V5a2 2 0 0 0-2-2H3A2 2 0 0 0 1 5V19A2 2 0 0 0 3 21Z"/>
    </symbol>
    <symbol id="icon_preview" viewBox="0 0 24 24">
        <path d="M0 0h24v24H0z" fill="none"/>
        <path d="M12 4.5C7 4.5 2.73 7.61 1 12c1.73 4.39 6 7.5 11 7.5s9.27-3.11 11-7.5c-1.73-4.39-6-7.5-11-7.5zM12 17c-2.76 0-5-2.24-5-5s2.24-5 5-5 5 2.24 5 5-2.24 5-5 5zm0-8c-1.66 0-3 1.34-3 3s1.34 3 3 3 3-1.34 3-3-1.34-3-3-3z"/>
    </symbol>
    <symbol id="icon_ping" viewBox="0 0 24 24">
        <path d="M0 0h24v24H0z" fill="none"/>
        <path d="M12 8c-2.21 0-4 1.79-4 4s1.79 4 4 4 4-1.79 4-4-1.79-4-4-4zm8.94 3c-.46-4.17-3.77-7.48-7.94-7.94V1h-2v2.06C6.83 3.52 3.52 6.83 3.06 11H1v2h2.06c.46 4.17 3.77 7.48 7.94 7.94V23h2v-2.06c4.17-.46 7.48-3.77 7.94-7.94H23v-2h-2.06zM12 19c-3.87 0-7-3.13-7-7s3.13-7 7-7 7 3.13 7 7-3.13 7-7 7z"/>
    </symbol>
    <symbol id="icon_json" viewBox="0 0 24 24">
        <path d="M0 0h24v24H0z" fill="none"/>
        <path d="M3.62 14.71c0-1.19-.85-1.79-2.55-1.79V11.09A3.4 3.4 0 0 0 3 10.65a1.51 1.51 0 0 0 .63-1.33v-3a2.48 2.48 0 0 1 1-2.21 5.62 5.62 0 0 1 3.13-.7V5.17a2.8 2.8 0 0 0-1.6.44A1.44 1.44 0 0 0 5.71 6.8V9.65c0 1.28-.73 2-2.2 2.29v.12c1.47.23 2.2 1 2.2 2.28v2.87A1.45 1.45 0 0 0 6.2 18.4a2.58 2.58 0 0 0 1.6.42v1.76a5.47 5.47 0 0 1-3.2-.75 2.79 2.79 0 0 1-1-2.38Z"/>
        <path d="M20.51 17.66a2.54 2.54 0 0 1-1 2.2 5.25 5.25 0 0 1-3.06.72V18.82a2.4 2.4 0 0 0 1.42-.37 1.41 1.41 0 0 0 .51-1.24V14.69a2.83 2.83 0 0 1 .51-1.8 2.66 2.66 0 0 1 1.69-.83v-.12c-1.46-.25-2.2-1-2.2-2.29V6.8A1.54 1.54 0 0 0 18 5.61a2.43 2.43 0 0 0-1.5-.44V3.42a5 5 0 0 1 3.08.73 2.86 2.86 0 0 1 .94 2.41V9.32a1.5 1.5 0 0 0 .61 1.36 3.3 3.3 0 0 0 1.81.41v1.83a3.28 3.28 0 0 0-1.8.41 1.53 1.53 0 0 0-.62 1.38Z"/>
    </symbol>
    <symbol id="icon_LTI" viewBox="0 0 24 24">
      <path d="M0 0h24v24H0z" fill="none"/>
      <path d="M5 13.18v4L12 21l7-3.82v-4L12 17l-7-3.82zM12 3L1 9l11 6 9-4.91V17h2V9L12 3z"/>
    </symbol>
    <symbol id="icon_upload" viewBox="0 0 24 24">
      <path d="M0 0h24v24H0z" fill="none"/>
      <path d="M19.35 10.04C18.67 6.59 15.64 4 12 4 9.11 4 6.6 5.64 5.35 8.04 2.34 8.36 0 10.91 0 14c0 3.31 2.69 6 6 6h13c2.76 0 5-2.24 5-5 0-2.64-2.05-4.78-4.65-4.96zM14 13v4h-4v-4H7l5-5 5 5h-3z"/>
    </symbol>
    <symbol id="icon_doublecheck" viewBox="0 0 24 24">
      <path d="M0 0h24v24H0z" fill="none"/>
      <path d="M18 7l-1.41-1.41-6.34 6.34 1.41 1.41L18 7zm4.24-1.41L11.66 16.17 7.48 12l-1.41 1.41L11.66 19l12-12-1.42-1.41zM.41 13.41L6 19l1.41-1.41L1.83 12 .41 13.41z"/>
    </symbol>
    <symbol id="icon_compare" viewBox="0 0 24 24">
      <path d="M6.99 11L3 15l3.99 4v-3H14v-2H6.99v-3zM21 9l-3.99-4v3H10v2h7.01v3L21 9z"/>
      <path d="M0 0h24v24H0z" fill="none"/>
    </symbol>
    <symbol id="icon_thumbsup" viewBox="0 0 24 24">
      <path fill="none" d="M24 24H0V0h24v24z"/>
      <path d="M2 20h2c.55 0 1-.45 1-1v-9c0-.55-.45-1-1-1H2v11zm19.83-7.12c.11-.25.17-.52.17-.8V11c0-1.1-.9-2-2-2h-5.5l.92-4.65c.05-.22.02-.46-.08-.66-.23-.45-.52-.86-.88-1.22L14 2 7.59 8.41C7.21 8.79 7 9.3 7 9.83v7.84C7 18.95 8.05 20 9.34 20h8.11c.7 0 1.36-.37 1.72-.97l2.66-6.15z"/>
    </symbol>
    <symbol id="icon_file" viewBox="0 0 24 24">
      <path d="M0 0h24v24H0z" fill="none"/>
      <path d="M14 2H6c-1.1 0-1.99.9-1.99 2L4 20c0 1.1.89 2 1.99 2H18c1.1 0 2-.9 2-2V8l-6-6zm2 16H8v-2h8v2zm0-4H8v-2h8v2zm-3-5V3.5L18.5 9H13z"/>
    </symbol>
    <symbol id="icon_list" viewBox="0 0 24 24">
      <path d="M3 3h4v4H3V3zm6 1h12v2H9V4zm-6 6h4v4H3v-4zm6 1h12v2H9v-2zm-6 6h4v4H3v-4zm6 1h12v2H9v-2z"/>
    </symbol>
    <symbol id="icon_grid" viewBox="0 0 24 24">
      <path d="M13 13h8v8h-8v-8zm0-10h8v8h-8V3zM3 13h8v8H3v-8zM3 3h8v8H3V3z"/>
    </symbol>
    <symbol id="icon_print" viewBox="0 0 24 24">
      <path d="M19 12a1 1 0 1 1 0-2 1 1 0 0 1 0 2zM8 20h8v-5H8v5zM19 8H5a3 3 0 0 0-3 3v7h4v4h12v-4h4v-7a3 3 0 0 0-3-3zM6 6h12V2H6v4z"/>
    </symbol>
    <symbol id="icon_email" viewBox="0 0 24 24">
      <path fill-rule="evenodd" d="M20 4H4c-1.1 0-1.99.9-1.99 2L2 18c0 1.1.9 2 2 2h16c1.1 0 2-.9 2-2V6c0-1.1-.9-2-2-2zm0 4l-8 5-8-5V6l8 5 8-5v2z"/>
    </symbol>
    <symbol id="icon_badgeaward" viewBox="0 0 24 24">
      <path fill-rule="evenodd" d="M20.225 6.445l-7.45-4.238a1.557 1.557 0 0 0-1.55 0l-7.45 4.238A1.545 1.545 0 0 0 3 7.759v8.477c0 .55.301 1.06.775 1.314l7.45 4.238c.237.127.495.212.775.212s.538-.064.775-.212l7.45-4.238c.474-.276.775-.784.775-1.314V7.759c0-.53-.301-1.038-.775-1.314zM10.73 16L7 12.587l1.378-1.262 2.352 2.152L15.622 9 17 10.261 10.73 16z"/>
    </symbol>
    <symbol id="icon_member" viewBox="0 0 24 24">
      <path fill-rule="evenodd" d="M12 12a4 4 0 1 0 0-8 4 4 0 0 0 0 8zm0 2c-2.67 0-8 1.34-8 4v2h16v-2c0-2.66-5.33-4-8-4z"/>
    </symbol>
    <symbol id="icon_issuer2" viewBox="0 0 24 24">
      <path fill-rule="evenodd" d="M19 3H5c-1.11 0-2 .857-2 1.905v13.333c0 1.048.89 1.905 2 1.905h4L12 23l3-2.857h4c1.1 0 2-.857 2-1.905V4.905C21 3.857 20.1 3 19 3zm-1 14H6v-.9c0-2 4-3.1 6-3.1s6 1.1 6 3.1v.9zM12 5c1.656 0 3 1.344 3 3s-1.344 3-3 3-3-1.344-3-3 1.344-3 3-3z"/>
    </symbol>
    <symbol id="icon_issuer" viewBox="0 0 24 24">
      <path fill-rule="evenodd" d="M0 24h24V0H0v24zM6 9l6-3 6 3v1h-1v5h1v1H6v-1h1v-5H6V9zm-1 9h13.999v-1H5v1zm9-3h2v-5h-2v5zm-3 0h2v-5h-2v5zm-3 0h2v-5H8v5z"/>
    </symbol>
    <symbol id="icon_badge" viewBox="0 0 24 24">
      <path fill-rule="evenodd" d="M12 0L2 6v12l10 6 10-6V6L12 0zM5.5 16.019V7.982l6.5-3.9 6.5 3.9v8.037L12 19.918l-6.5-3.899zm1-7.471v6.904l5.5 3.3 5.5-3.3V8.548l-5.5-3.3-5.5 3.3z"/>
    </symbol>
    <symbol id="icon_narrative" viewBox="0 0 24 24">
        <path fill-rule="evenodd" d="M5 3h14c1.1 0 2 .857 2 1.905v13.333c0 1.048-.9 1.905-2 1.905h-4L12 23l-3-2.857H5c-1.11 0-2-.857-2-1.905V4.905C3 3.857 3.89 3 5 3zm1 7v2h12v-2H6zm0 4v2h8v-2H6zm0-8v2h12V6H6z"/>
    </symbol>
    <symbol id="icon_tags" viewBox="0 0 24 24">
      <path fill-rule="evenodd" d="M6 7a1 1 0 1 1 0-2 1 1 0 0 1 0 2m15.606 6.606L11 3H3v8l10.607 10.606a.999.999 0 0 0 1.414 0l6.585-6.585a1 1 0 0 0 0-1.415"/>
    </symbol>
    <symbol id="icon_markdown" viewBox="0 0 24 24">
      <path fill-rule="evenodd" d="M22.266 4H1.731C.776 4 0 4.776 0 5.731V18.27C0 19.224.776 20 1.731 20H22.27c.955 0 1.731-.776 1.731-1.731V5.729A1.736 1.736 0 0 0 22.266 4zM13.5 16.993l-3 .003v-5.498l-2.25 2.884L6 11.498v5.5H3V7h3l2.25 2.999 2.25-3 3-.002v9.996zm4.476-.248l-3.727-5.247h2.25V7h3v4.498h2.25l-3.773 5.247z"/>
    </symbol>
    <symbol id="icon_arrow2" viewBox="0 0 24 24">
      <path fill-rule="evenodd" d="M12 0v6H0v12h12v6l12-12z"/>
    </symbol>
    <symbol id="icon_calendar" viewBox="0 0 24 24">
      <path fill-rule="evenodd" clip-rule="evenodd" d="M16 14H20V11H16V14ZM16 19H20V16H16V19ZM10 14H14V11H10V14ZM10 19H14V16H10V19ZM4 14H8V11H4V14ZM4 19H8V16H4V19ZM20 5V4C20 3.448 19.552 3 19 3C18.448 3 18 3.448 18 4V5H13V4C13 3.448 12.552 3 12 3C11.448 3 11 3.448 11 4V5H6V4C6 3.448 5.552 3 5 3C4.448 3 4 3.448 4 4V5H2V19C2 20.104 2.896 21 4 21H20C21.104 21 22 20.104 22 19V5H20Z"/>
    </symbol>
    <symbol id="icon_openbadgeslogo" viewBox="0 0 24 24">
      <path fill-rule="evenodd" clip-rule="evenodd" d="M18.5945 18.4475L10.5318 13.8155L11.584 13.1896L12.285 12.7886L12.9861 13.1896L14.7387 14.1907L16.1408 14.9915L17.8935 15.9932L19.2956 16.7947L20.3465 17.3953L18.5945 18.4475ZM15.4398 20.2753L7.40231 15.6181L9.15557 14.6164L17.1924 19.2484L15.4398 20.2753ZM12.3103 22.0772L4.27284 17.4452L6.0261 16.4442L14.0623 21.0762L12.3103 22.0772ZM3.57178 14.2159L11.6086 9.58395V11.6119L10.9076 12.013L9.15557 13.0134L7.75284 13.8155L6.00084 14.8166L4.59873 15.6181L3.57178 16.2193V14.2159ZM3.57178 10.5856L11.6086 5.95363V7.98163L3.57178 12.589V10.5856ZM3.57178 6.95468L11.6086 2.32268V4.32605L3.57178 8.95805V6.95468ZM13.0107 2.32268L14.764 3.32437V12.6136L13.7124 12.013L13.0107 11.6119V2.32268ZM16.1408 4.12521L17.8935 5.12689V14.4162L16.1408 13.4145V4.12521ZM19.2956 5.95363L21.0482 6.95468V16.2439L19.2956 15.2423V5.95363ZM22.425 6.15384L21.0229 5.353L19.2703 4.35131L17.8935 3.52458L16.1408 2.52289L14.7387 1.72205L12.9861 0.720999L12.285 0.319946L11.584 0.720999L2.16968 6.15384V17.8715L2.87073 18.2719L12.3103 23.7301L13.7124 22.9292L15.4644 21.9275L16.8672 21.1261L18.6198 20.1244L20.0219 19.3235L21.7739 18.3218L22.4756 17.9214V6.15384H22.425Z" fill="#073B5A"/>
      <path fill-rule="evenodd" clip-rule="evenodd" d="M13.0109 11.6118L13.7119 12.0129L14.7635 12.6135V3.32425L13.0109 2.32257V11.6118ZM16.141 13.4144L17.893 14.416V5.12678L16.141 4.1251V13.4144ZM19.2957 5.95352V15.2421L21.0483 16.2438V6.95457L19.2957 5.95352Z" fill="#F38021"/>
      <path fill-rule="evenodd" clip-rule="evenodd" d="M3.57178 16.2191L4.59872 15.6179L6.00083 14.8164L7.75283 13.8154L9.15557 13.0139L10.9076 12.0128L11.6093 11.6118V9.58377L3.57178 14.2158V16.2191ZM3.57178 12.5882L11.6093 7.98146V5.95346L3.57178 10.5855V12.5882ZM3.57178 6.95451V8.95788L11.6093 4.32588V2.32251L3.57178 6.95451Z" fill="#5BC8E4"/>
      <path fill-rule="evenodd" clip-rule="evenodd" d="M19.2958 16.7946L17.8931 15.9931L16.1411 14.992L14.7383 14.1906L12.9863 13.1895L12.2846 12.7885L11.5842 13.1895L10.532 13.8154L18.5948 18.4474L20.3468 17.3952L19.2958 16.7946ZM7.40254 15.6179L15.44 20.2752L17.1926 19.2482L9.15518 14.6162L7.40254 15.6179ZM4.27307 17.4451L12.3099 22.0771L14.0625 21.076L6.0257 16.444L4.27307 17.4451Z" fill="#AFCD38"/>
    </symbol>
    <symbol id="icon_lock" viewBox="0 0 24 24">
      <path d="M16.5 11V6.5C16.5 4 14.5 2 12 2C9.5 2 7.5 4 7.5 6.5V11H5V22H19V11H16.5ZM14.5 11H9.5V6.5C9.5 5.1 10.6 4 12 4C13.4 4 14.5 5.1 14.5 6.5V11Z" />
    </symbol>
  </def>
</svg>
